# xmcd CD database file
#
# Track frame offsets:
#	150
#	15715
#	29772
#	48392
#	63432
#	77990
#	90845
#	105985
#	117980
#	130767
#	145342
#	160292
#	178245
#	188567
#	202890
#	214872
#	232810
#	247855
#	259070
#	276937
#	290752
#	310700
#	325512
#
# Disc length: 4500 seconds
#
# Revision: 2
# Processed by: cddbd v1.5.2PL0 Copyright (c) Steve Scherf et al.
# Submitted via: CDex 2.18
#
DISCID=3f119217
DTITLE=Martin Pyrker - Return to Blues and It's Whoopie
DYEAR=1991
DGENRE=Blues
TTITLE0=Boogie Woogie Drive
TTITLE1=Jimmy's Rocks
TTITLE2=Return To Blues
TTITLE3=She's A Good Deal
TTITLE4=How Long Blues
TTITLE5=Boogie Rolls On
TTITLE6=Gettin' Up Again
TTITLE7=Blues For Albert
TTITLE8=Indiana Avenue Stomp
TTITLE9=I Can't Sleep
TTITLE10=Nobody's Business
TTITLE11=Feel Like Jumping
TTITLE12=Low Down Dog Blues
TTITLE13=B.D. Woman
TTITLE14=Nothing But Boogie
TTITLE15=Sometimes I'm Happy, Sometime I Feel Blue
TTITLE16=It's Whoopie
TTITLE17=Cow Cow Blues
TTITLE18=Meade Lux Special
TTITLE19=If You Loose Your Money
TTITLE20=Two Nineteen Blues
TTITLE21=Boogie On The Rocks
TTITLE22=Chicago Session
EXTD=Return To Blues - 1980\r\n\r\nMartin Pyrker Meets Jo-Ann Kelly\r\nIt's Whoopie\r\nBoogie And Blues Live In Vienna - 1978 YEAR: 1991
EXTT0=
EXTT1=
EXTT2=
EXTT3=
EXTT4=
EXTT5=
EXTT6=
EXTT7=
EXTT8=
EXTT9=
EXTT10=
EXTT11=
EXTT12=
EXTT13=
EXTT14=
EXTT15=
EXTT16=
EXTT17=
EXTT18=
EXTT19=
EXTT20=
EXTT21=
EXTT22=
PLAYORDER=
